<?xml version="1.0" encoding="utf-8"?>
<?xml-stylesheet type="text/xsl" href="rss1.xsl"?>
<rss version="2.0" xmlns:atom="http://www.w3.org/2005/Atom" xmlns:content="http://purl.org/rss/1.0/modules/content/" xmlns:dc="http://purl.org/dc/elements/1.1/" xmlns:media="http://search.yahoo.com/mrss/">
<channel>
 <title>Getty</title>
 <link>http://www.gettyimg.com/</link>
 <atom:link href="http://www.gettyimg.com/" rel="self" type="application/rss+xml" />

 
                <item>
                <title><![CDATA[【Vimeo】Green Day - Macy's Day Parade (540p Vimeo Original AAC2.0 H.264)]]></title>
                <link><![CDATA[https://sharemania.us/threads/green-day-macys-day-parade-540p-vimeo-original-aac2-0-h-264.238473/]]></link>
                <description><![CDATA[<article>
<blockquote class="messageText SelectQuoteContainer ugc baseHtml">
<div style="text-align: center"><img src="https://i.gyazo.com/3697f620fe627bda81c30c4c6ddb3922.png" class="bbCodeImage LbImage" alt="[​IMG]" data-url="https://i.gyazo.com/3697f620fe627bda81c30c4c6ddb3922.png" style="">
<div class="bbCodeBlock bbCodeCode">
<div class="type">Code:</div>
<pre>General

Format                         : MPEG-4
Format profile                 : QuickTime
Codec ID                       : qt   2005.03 (qt  )
File size                      : 202 MiB
Duration                       : 3 min 49 s
Overall bit rate               : 7 364 kb/s
Frame rate                     : 29.970 FPS
Encoded date                   : 2015-02-11 23:11:54 UTC
Tagged date                    : 2015-02-11 23:12:35 UTC
Writing library                : Apple QuickTime
com.apple.quicktime.software   : Sorenson Squeeze
F                              : e
fniï¿½                         : Source ID = 060a2b340101010101010f00-13-00-00-00-{4f6003b7-fe6b-00f9-060e2b347f7f2a80}
Encoded_With                   : Sorenson Squeeze

Video
ID                             : 2
Format                         : AVC
Format/Info                    : Advanced Video Codec
Format profile                 : Baseline@L3.1
Format settings                : 1 Ref Frames
Format settings, CABAC         : No
Format settings, Reference fra : 1 frame
Codec ID                       : avc1
Codec ID/Info                  : Advanced Video Coding
Duration                       : 3 min 49 s
Bit rate mode                  : Constant
Bit rate                       : 6 992 kb/s
Width                          : 720 pixels
Height                         : 540 pixels
Display aspect ratio           : 4:3
Frame rate mode                : Variable
Frame rate                     : 29.970 FPS
Minimum frame rate             : 28.571 FPS
Maximum frame rate             : 30.000 FPS
Standard                       : NTSC
Color space                    : YUV
Chroma subsampling             : 4:2:0
Bit depth                      : 8 bits
Scan type                      : Progressive
Bits/(Pixel*Frame)             : 0.600
Stream size                    : 192 MiB (95%)
Language                       : English
Encoded date                   : 2015-02-11 23:11:38 UTC
Tagged date                    : 2015-02-11 23:12:35 UTC
Color range                    : Limited
Codec configuration box        : avcC

Audio
ID                             : 1
Format                         : AAC LC
Format/Info                    : Advanced Audio Codec Low Complexity
Codec ID                       : mp4a-40-2
Duration                       : 3 min 49 s
Bit rate mode                  : Constant
Bit rate                       : 128 kb/s
Channel(s)                     : 2 channels
Channel layout                 : L R
Sampling rate                  : 44.1 kHz
Frame rate                     : 43.066 FPS (1024 SPF)
Compression mode               : Lossy
Stream size                    : 3.55 MiB (2%)
Language                       : English
Encoded date                   : 2015-02-11 23:11:38 UTC
Tagged date                    : 2015-02-11 23:12:35 UTC

Other #1
ID                             : 3
Type                           : Hint
Format                         : RTP
Codec ID                       : rtp
Duration                       : 3 min 49 s
Title                          : Hinted Video Track
Language                       : English
Default                        : No
Encoded date                   : 2015-02-11 23:11:38 UTC
Tagged date                    : 2015-02-11 23:12:35 UTC

Other #2
ID                             : 4
Type                           : Hint
Format                         : RTP
Codec ID                       : rtp
Duration                       : 3 min 49 s
Bit rate mode                  : Variable
Title                          : Hinted Sound Track
Language                       : English
Default                        : No
Encoded date                   : 2015-02-11 23:11:51 UTC
Tagged date                    : 2015-02-11 23:12:35 UTC</pre>
</div>
<div class="bbCodeBlock bbCodeVfcHH HiddenContent">
<div class="attribution type">Hidden Content:</div>
<blockquote>You must either reply or click 'Like' to see the hidden information contained here.</blockquote>
</div></div>
<div class="messageTextEndMarker">&nbsp;</div>
</blockquote>
</article>]]></description>
                <author><![CDATA[Rey619Spear]]></author>
                </item>

                </channel></rss>